<?xml version="1.0" encoding="UTF-8" standalone="no"?>
<svg
   xmlns:dc="http://purl.org/dc/elements/1.1/"
   xmlns:cc="http://creativecommons.org/ns#"
   xmlns:rdf="http://www.w3.org/1999/02/22-rdf-syntax-ns#"
   xmlns:svg="http://www.w3.org/2000/svg"
   xmlns="http://www.w3.org/2000/svg"
   xmlns:sodipodi="http://sodipodi.sourceforge.net/DTD/sodipodi-0.dtd"
   xmlns:inkscape="http://www.inkscape.org/namespaces/inkscape"
   width="128mm"
   height="128mm"
   viewBox="0 0 128 128"
   version="1.1"
   id="svg8"
   inkscape:version="1.0.2 (e86c870879, 2021-01-15)"
   sodipodi:docname="LSLMonitor_icon.svg"
   inkscape:export-filename="D:\Thesis\src\lsl\LSLMonitor\icon\LSLMonitor_icon.png"
   inkscape:export-xdpi="6.394659"
   inkscape:export-ydpi="6.394659">
  <defs
     id="defs2" />
  <sodipodi:namedview
     id="base"
     pagecolor="#ffffff"
     bordercolor="#666666"
     borderopacity="1.0"
     inkscape:pageopacity="0.0"
     inkscape:pageshadow="2"
     inkscape:zoom="0.98994949"
     inkscape:cx="180.04231"
     inkscape:cy="268.06056"
     inkscape:document-units="mm"
     inkscape:current-layer="layer1"
     inkscape:document-rotation="0"
     showgrid="false"
     inkscape:window-width="1267"
     inkscape:window-height="1040"
     inkscape:window-x="182"
     inkscape:window-y="0"
     inkscape:window-maximized="0" />
  <metadata
     id="metadata5">
    <rdf:RDF>
      <cc:Work
         rdf:about="">
        <dc:format>image/svg+xml</dc:format>
        <dc:type
           rdf:resource="http://purl.org/dc/dcmitype/StillImage" />
        <dc:title></dc:title>
      </cc:Work>
    </rdf:RDF>
  </metadata>
  <g
     inkscape:label="Layer 1"
     inkscape:groupmode="layer"
     id="layer1"
     transform="translate(-1.1843248,-1.4983766)">
    <path
       d="M 7.1304753,6.0391151 C 6.7725987,6.1185811 6.0668157,6.3870361 5.55983,6.6355511 3.8798527,7.4705771 2.6372621,8.9517411 1.9414049,10.959773 l -0.32804,0.944372 v 39.613792 39.61381 l 0.2286339,0.775368 c 0.7555009,2.614409 2.5647061,4.483276 5.0399466,5.208956 0.5566887,0.16897 1.958329,0.17893 23.4899486,0.20875 l 22.883571,0.0199 v 4.900779 c 0,2.74363 -0.04978,5.19899 -0.09941,5.58668 -0.397624,2.72377 -2.22671,5.08965 -4.77155,6.1732 -1.391699,0.59644 -1.779383,0.6362 -6.82927,0.6362 -4.821253,0 -5.17913,0.0298 -6.073799,0.48709 -0.695843,0.35788 -1.292294,0.98413 -1.670037,1.74958 -0.49703,1.01395 -0.556674,1.97821 -0.198812,3.36991 0.576555,2.2466 1.769457,4.08563 2.982226,4.6423 0.397624,0.17895 1.23265,0.18889 28.599479,0.18889 h 28.181959 l 0.516927,-0.25847 c 1.053719,-0.52685 2.167067,-2.23667 2.763518,-4.26457 0.347921,-1.173 0.377743,-2.53488 0.07946,-3.29038 -0.457267,-1.1233 -1.212768,-1.89867 -2.326131,-2.34601 -0.536793,-0.2187 -0.656095,-0.22864 -5.66622,-0.28828 -5.696026,-0.0597 -5.576739,-0.0496 -7.117548,-0.78531 -1.620348,-0.77538 -2.942463,-2.0975 -3.717845,-3.71784 -0.745546,-1.56069 -0.725665,-1.37182 -0.765427,-7.38596 l -0.03973,-5.397809 22.8935,-0.0199 c 21.531615,-0.03 22.933255,-0.0397 23.489925,-0.20875 2.47526,-0.72568 4.28446,-2.594547 5.03996,-5.208956 l 0.22864,-0.775368 V 51.517937 11.904145 l -0.32804,-0.944372 C 127.61209,8.5938801 126.0514,7.0033681 123.78491,6.1882251 l -0.69585,-0.248516 -57.656225,-0.01994 C 16.444912,5.9094291 7.6771939,5.9301081 7.1304606,6.0391151 Z M 120.85242,51.617339 V 89.392112 H 65.184341 9.5162504 V 51.617339 13.842578 H 65.184341 120.85242 Z"
       id="path835"
       style="fill:#000000;stroke:none;stroke-width:0.00994072" />
    <text
       xml:space="preserve"
       style="font-style:normal;font-weight:normal;font-size:50.8px;line-height:1.25;font-family:sans-serif;fill:#000000;fill-opacity:1;stroke:none;stroke-width:0.264583"
       x="17.038427"
       y="69.148788"
       id="text849"><tspan
         sodipodi:role="line"
         id="tspan847"
         x="17.038427"
         y="69.148788"
         style="font-size:50.8px;stroke-width:0.264583">LSL</tspan></text>
  </g>
</svg>
